<svg xmlns:dc="http://purl.org/dc/elements/1.1/" xmlns:cc="http://creativecommons.org/ns#" xmlns:rdf="http://www.w3.org/1999/02/22-rdf-syntax-ns#" xmlns:svg="http://www.w3.org/2000/svg" xmlns="http://www.w3.org/2000/svg" viewBox="0 0 1440 1440" height="1440" width="1440" xml:space="preserve" id="svg2"><metadata></metadata><defs id="defs6"><clipPath id="clipPath20" clipPathUnits="userSpaceOnUse"><path id="path18" d="M 0,1080 H 1080 V 0 H 0 Z"></path></clipPath></defs><g transform="matrix(1.3333333,0,0,-1.3333333,0,1440)" id="g10"><path id="path12" style="fill:#000000;fill-opacity:1;fill-rule:nonzero;stroke:none" d="M 0,0 H 1080 V 1080 H 0 Z"></path><g id="g14"><g clip-path="url(#clipPath20)" id="g16"><g transform="translate(581.1182,611.4712)" id="g22"><path id="path24" style="fill:#ffffff;fill-opacity:1;fill-rule:nonzero;stroke:none" d="m 0,0 v 30.877 h -42.494 v -78.045 h -187.78 v 78.045 h -42.494 V -173.82 h 42.494 v 91.377 h 187.78 V -173.82 H 0 v 30.475 c -16.587,20.138 -24.985,44.262 -24.985,71.874 0,27.591 8.412,51.553 24.985,71.471"></path></g><g transform="translate(671.5234,577.2168)" id="g26"><path id="path28" style="fill:#ffffff;fill-opacity:1;fill-rule:nonzero;stroke:none" d="m 0,0 c 5.09,0 9.767,-1.351 14.026,-4.052 5.09,-2.89 8.423,-8.531 9.997,-16.917 l 26.109,-0.417 C 46.983,-3.275 38.929,9.401 25.968,16.643 18.005,21.1 8.609,23.331 -2.222,23.331 c -17.036,0 -30.437,-5.926 -40.204,-17.775 -9.769,-11.852 -14.651,-26.201 -14.651,-43.05 0,-18.054 5.671,-32.635 17.012,-43.745 11.339,-11.11 24.789,-16.664 40.342,-16.664 10.461,0 20.576,3.225 30.343,9.682 9.767,6.452 16.041,17.762 18.818,33.922 H 24.023 c -1.019,-5.74 -3.309,-10.509 -6.874,-14.304 -3.564,-3.795 -8.817,-5.692 -15.761,-5.692 -7.592,0 -14.095,2.863 -19.511,8.592 -5.417,5.728 -8.124,14.925 -8.124,27.585 0,12.751 2.452,22.291 7.359,28.624 C -13.98,-3.165 -7.687,0 0,0"></path></g><g transform="translate(728.877,479.7295)" id="g30"><path id="path32" style="fill:#ffffff;fill-opacity:1;fill-rule:nonzero;stroke:none" d="m 0,0 c -16.48,-16.664 -36.339,-24.996 -59.575,-24.996 -23.331,0 -43.238,8.284 -59.716,24.857 -16.573,16.573 -24.857,36.707 -24.857,60.41 0,22.865 8.145,42.633 24.441,59.298 16.571,17.033 36.614,25.552 60.132,25.552 23.236,0 43.14,-8.519 59.714,-25.552 C 16.525,102.811 24.719,83.045 24.719,60.271 24.719,36.848 16.478,16.756 0,0 m 12.775,132.623 c -19.997,19.997 -44.114,29.996 -72.35,29.996 -26.943,0 -50.41,-9.26 -70.408,-27.774 -7.128,-6.632 -13.034,-13.842 -17.776,-21.604 -9.425,-15.428 -14.165,-33.076 -14.165,-52.97 0,-19.921 4.727,-37.666 14.165,-53.243 4.204,-6.938 9.337,-13.449 15.415,-19.526 19.719,-19.72 43.975,-29.58 72.769,-29.58 27.865,0 51.75,9.628 71.657,28.886 20.459,19.904 30.69,44.39 30.69,73.463 0,28.236 -9.999,52.354 -29.997,72.352"></path></g></g></g></g></svg>